<?xml version="1.0" standalone="no"?>
<!DOCTYPE svg PUBLIC "-//W3C//DTD SVG 20010904//EN"
 "http://www.w3.org/TR/2001/REC-SVG-20010904/DTD/svg10.dtd">
<svg version="1.0" xmlns="http://www.w3.org/2000/svg"
 width="198.000000pt" height="198.000000pt" viewBox="0 0 198.000000 198.000000"
 preserveAspectRatio="xMidYMid meet">
<metadata>
Created by potrace 1.16, written by Peter Selinger 2001-2019
</metadata>
<g transform="translate(0.000000,198.000000) scale(0.100000,-0.100000)"
fill="#000000" stroke="none">
<path d="M0 990 l0 -990 990 0 990 0 0 990 0 990 -990 0 -990 0 0 -990z m540
211 c0 -5 -13 -14 -30 -20 l-30 -10 0 -175 0 -176 73 0 72 0 25 60 c14 33 28
60 33 60 4 0 7 -36 7 -80 l0 -80 -180 0 c-165 0 -218 8 -155 24 l25 6 0 180 0
180 -25 12 c-46 21 -26 28 80 28 58 0 105 -4 105 -9z m526 -220 c39 -90 78
-169 87 -176 9 -7 17 -15 17 -19 0 -3 -38 -6 -85 -6 -81 0 -109 11 -64 25 14
5 18 12 14 23 -4 10 -12 29 -17 45 -10 26 -13 27 -78 27 -65 0 -68 -1 -78 -27
-5 -16 -13 -35 -17 -45 -4 -11 0 -18 14 -23 39 -12 21 -25 -34 -25 -53 0 -70
11 -41 27 8 4 41 71 74 148 90 209 82 196 111 193 23 -3 33 -20 97 -167z m490
140 c86 -39 118 -142 72 -231 -43 -84 -108 -110 -270 -110 -109 0 -129 7 -83
28 25 12 25 12 25 157 0 80 -4 145 -8 145 -5 0 -17 7 -28 15 -17 13 -5 14 116
14 110 1 142 -3 176 -18z"/>
<path d="M1390 966 l0 -146 38 0 c84 0 128 62 120 167 -6 72 -44 113 -112 120
l-46 6 0 -147z"/>
</g>
</svg>
